<svg fill="#000000" xmlns="http://www.w3.org/2000/svg"  viewBox="0 0 30 30" width="100px" height="100px"><path d="M 14.943359 3.9941406 A 1.0001 1.0001 0 0 0 14.882812 4 L 14.763672 4 L 14.669922 4.046875 A 1.0001 1.0001 0 0 0 14.425781 4.1679688 L 10.408203 6.1777344 L 6.1777344 10.408203 L 4.1777344 14.40625 A 1.0001 1.0001 0 0 0 4.0429688 14.677734 L 4 14.763672 L 4 14.873047 A 1.0001 1.0001 0 0 0 4 15.101562 L 4 23.310547 L 4.1894531 23.572266 C 4.3539091 23.800155 4.539373 24.027654 4.7558594 24.244141 C 5.7978556 25.286137 7.1688433 25.817787 8.6816406 25.951172 A 1.0001 1.0001 0 0 0 9 26 L 24.847656 26 A 1.0001 1.0001 0 0 0 25.109375 26.009766 A 1.0001 1.0001 0 0 0 25.179688 26 L 26 26 L 26 25.175781 A 1.0001 1.0001 0 0 0 26 24.847656 L 26 9 A 1.0001 1.0001 0 0 0 25.951172 8.6816406 C 25.817742 7.1689219 25.286031 5.7981033 24.244141 4.7558594 L 24.242188 4.7558594 L 24.242188 4.7539062 C 24.026103 4.5390284 23.799835 4.3550658 23.574219 4.1914062 L 23.310547 4 L 15.089844 4 A 1.0001 1.0001 0 0 0 14.943359 3.9941406 z M 18.609375 6 L 22.626953 6 C 22.694853 6.057278 22.771385 6.1115812 22.832031 6.171875 C 23.563779 6.9049206 23.959578 7.9539796 23.996094 9.2324219 L 18.609375 6 z M 14.957031 6.140625 L 16.765625 7.2246094 L 16.064453 11.521484 L 14.292969 13.292969 L 11.521484 16.064453 L 7.2246094 16.765625 L 6.140625 14.957031 L 7.8222656 11.591797 L 11.591797 7.8222656 L 14.957031 6.140625 z M 18.611328 8.3320312 L 22.001953 10.367188 L 18.201172 10.841797 L 18.611328 8.3320312 z M 23.533203 12.191406 C 22.94939 14.069984 21.80846 16.11585 20.164062 18.023438 L 18.351562 12.837891 L 23.533203 12.191406 z M 16.582031 13.832031 L 18.058594 18.058594 L 13.832031 16.582031 L 15.707031 14.707031 L 16.582031 13.832031 z M 24 16.0625 L 24 22.585938 L 21.236328 19.822266 C 22.340128 18.61834 23.265673 17.349716 24 16.0625 z M 10.841797 18.201172 L 10.367188 22.001953 L 8.3320312 18.611328 L 10.841797 18.201172 z M 12.837891 18.351562 L 18.021484 20.164062 C 16.114479 21.807659 14.069605 22.949533 12.191406 23.533203 L 12.837891 18.351562 z M 6 18.609375 L 9.2324219 23.996094 C 7.9525009 23.959572 6.9028025 23.562959 6.1699219 22.830078 C 6.1104242 22.77058 6.056695 22.69414 6 22.626953 L 6 18.609375 z M 19.822266 21.236328 L 22.585938 24 L 16.0625 24 C 17.349776 23.265602 18.618474 22.340004 19.822266 21.236328 z"/></svg>